<?xml version="1.0" encoding="UTF-8" standalone="no"?>
<!-- Created with Inkscape (http://www.inkscape.org/) -->

<svg
   version="1.1"
   id="svg2"
   width="440"
   height="440"
   viewBox="0 0 440 440"
   sodipodi:docname="LogiChain.svg"
   inkscape:version="1.2.2 (b0a8486541, 2022-12-01)"
   xmlns:inkscape="http://www.inkscape.org/namespaces/inkscape"
   xmlns:sodipodi="http://sodipodi.sourceforge.net/DTD/sodipodi-0.dtd"
   xmlns="http://www.w3.org/2000/svg"
   xmlns:svg="http://www.w3.org/2000/svg">
  <defs
     id="defs6" />
  <sodipodi:namedview
     id="namedview4"
     pagecolor="#ffffff"
     bordercolor="#000000"
     borderopacity="0.25"
     inkscape:showpageshadow="2"
     inkscape:pageopacity="0.0"
     inkscape:pagecheckerboard="0"
     inkscape:deskcolor="#d1d1d1"
     showgrid="false"
     inkscape:zoom="1.9636364"
     inkscape:cx="219.74537"
     inkscape:cy="220"
     inkscape:window-width="1920"
     inkscape:window-height="1054"
     inkscape:window-x="0"
     inkscape:window-y="0"
     inkscape:window-maximized="1"
     inkscape:current-layer="g8" />
  <g
     inkscape:groupmode="layer"
     inkscape:label="Image"
     id="g8">
    <path
       style="fill:#008000;stroke-width:1.00268"
       d="m 173.20203,426.12374 c -15.07765,-7.63195 -32.151,-16.71486 -37.94077,-20.18426 C 75.588386,370.18175 45.620636,334.33742 35.920396,287.11824 l -1.84446,-8.97849 2.27714,-3.05524 c 1.25242,-1.68038 8.95496,-12.19335 17.11675,-23.36215 8.16178,-11.1688 15.0684,-20.30691 15.34806,-20.30691 0.27964,0 0.27233,0.90315 -0.0163,2.00701 -0.28859,1.10385 -0.14812,1.77419 0.31217,1.48965 1.13171,-0.69962 2.29645,3.20852 1.39233,4.67179 -0.42492,0.6877 -0.28577,0.89774 0.3389,0.51158 0.60129,-0.37173 1.53819,0.7175 2.16557,2.51767 0.89005,2.55383 0.81131,3.49832 -0.4036,4.84112 -1.88089,2.07888 -1.99282,16.46349 -0.20287,26.07213 l 1.21293,6.51117 7.38821,-9.78914 c 4.06351,-5.38403 7.83051,-10.06258 8.37111,-10.39678 0.54062,-0.33419 4.29734,-0.66531 8.34829,-0.7358 l 7.365344,-0.12818 -1.63609,2.50956 c -0.89986,1.38025 -6.969134,9.83552 -13.487274,18.78948 -7.77669,10.68281 -11.85117,17.15872 -11.85117,18.83603 0,6.20711 11.07399,23.5533 22.812424,35.73314 18.36139,19.05184 42.65492,35.68193 81.82514,56.01323 l 17.91638,9.29949 12.37205,-6.18058 c 41.17899,-20.57136 69.8796,-40.04436 89.06343,-60.42839 14.19265,-15.0806 23.30867,-30.85203 27.80172,-48.09922 2.05632,-7.89342 2.21805,-11.14324 2.59957,-52.23572 l 0.40683,-43.81864 16.07067,-18.857 c 17.96869,-21.08411 21.50174,-24.87879 20.51043,-22.02925 -0.80071,2.30165 -0.9614,112.93508 -0.17794,122.50666 0.31602,3.86082 0.22922,6.24803 -0.19288,5.30491 -0.46045,-1.02882 -0.81989,0.97694 -0.89852,5.01405 -0.31014,15.92293 -12.30575,45.57908 -25.41531,62.83298 -17.16707,22.59414 -44.77992,45.42919 -78.26394,64.72209 C 250.01657,417.27181 204.42304,440 202.15884,440 c -0.84859,0 -13.87915,-6.24432 -28.95682,-13.87626 z M 48.723626,299.41853 c -0.32003,-0.79998 -0.55759,-0.56236 -0.6057,0.60586 -0.0435,1.05713 0.19341,1.64942 0.52656,1.31619 0.33314,-0.33322 0.36875,-1.19815 0.0791,-1.92205 z m -1.00255,-4.01124 c -0.32004,-0.79998 -0.5576,-0.56236 -0.60571,0.60586 -0.0435,1.05713 0.19341,1.64942 0.52657,1.31619 0.33313,-0.33322 0.36874,-1.19816 0.0791,-1.92205 z m -1.00256,-4.01125 c -0.32004,-0.79997 -0.55761,-0.56235 -0.60571,0.60587 -0.0435,1.05712 0.19342,1.64941 0.52657,1.31619 0.33314,-0.33322 0.36875,-1.19816 0.0791,-1.92206 z m -1.00256,-5.01405 c -0.32004,-0.79997 -0.55761,-0.56235 -0.6057,0.60587 -0.0435,1.05712 0.19341,1.64941 0.52656,1.31619 0.33314,-0.33322 0.36875,-1.19816 0.0791,-1.92206 z M 351.50583,276.8117 c -0.25419,-0.9757 -0.47889,-0.42021 -0.49931,1.23443 -0.0205,1.65464 0.18753,2.45294 0.46216,1.774 0.27462,-0.67893 0.29134,-2.03272 0.0372,-3.00843 z m 1.05912,-81.6778 c -0.15665,-14.51675 -0.28494,-2.92833 -0.28511,25.75204 -1.7e-4,28.68038 0.12798,40.55772 0.28479,26.3941 0.15682,-14.16361 0.15696,-37.62937 3.2e-4,-52.14614 z M 280.3814,423.8747 c -0.96497,-0.56219 -2.47114,-2.40835 -3.34704,-4.10257 -4.13143,-7.99131 4.00586,-16.93987 11.67222,-12.83593 1.60207,0.85762 3.49458,-0.0937 11.21286,-5.63602 14.70685,-10.56078 21.67327,-16.57019 34.5385,-29.79377 24.63239,-25.31853 38.49634,-50.10309 45.54829,-81.42655 2.14674,-9.53543 2.27565,-12.51151 2.624,-60.5761 l 0.36634,-50.54798 -3.05952,-2.79514 c -4.34887,-3.97308 -4.33815,-9.6762 0.0251,-13.34856 3.70967,-3.12227 6.78851,-3.29217 10.25362,-0.56583 2.69502,2.12043 6.16716,7.99777 4.72483,7.99777 -0.45752,0 -0.61399,0.83336 -0.34769,1.85189 0.32292,1.23518 -0.62647,2.78785 -2.85091,4.66246 l -3.33503,2.81057 -0.0203,49.23859 c -0.0217,52.6706 0.018,52.14673 -5.57352,73.80745 -9.54066,36.95975 -40.9046,77.49323 -80.4574,103.9799 -3.76705,2.52261 -6.98636,5.09148 -7.15404,5.70861 -0.16768,0.61712 -0.82489,3.03728 -1.46044,5.37814 -1.64352,6.05344 -8.30176,9.13991 -13.3599,6.19307 z m 7.66232,-6.18723 c 2.3321,-3.72121 -3.57584,-7.67668 -6.39359,-4.28064 -1.02485,1.23518 -1.05846,2.14081 -0.15322,4.12811 1.3341,2.92876 4.75695,3.0085 6.54681,0.15253 z M 389.30327,170.99613 c 1.40432,-2.24336 -0.2496,-5.13755 -3.18662,-5.57631 -2.52061,-0.37655 -4.62362,2.99509 -3.69451,5.92319 0.79466,2.50439 5.23646,2.28047 6.88113,-0.34688 z M 132.3372,338.71616 c -1.6259,-1.11955 -24.1435,-34.04435 -24.12464,-35.27461 0.0112,-0.73039 5.11704,-10.12763 11.34634,-20.88277 6.2293,-10.75514 20.58253,-35.5747 31.89606,-55.15457 11.31353,-19.57987 24.46136,-42.23327 29.21739,-50.34089 15.36601,-26.19444 16.15151,-28.37084 11.96198,-33.14307 -1.89543,-2.15906 -4.42572,-2.22766 -8.29756,-0.22495 -2.64941,1.37041 -2.95788,2.02971 -2.95788,6.32194 0,5.43815 -2.00337,9.11468 -12.7441,23.38769 -8.16242,10.84678 -13.65341,14.27308 -22.82646,14.24339 -4.47412,-0.0145 -7.3324,-0.68368 -11.04835,-2.58667 -9.22266,-4.72307 -10.29379,-7.77224 -4.63515,-13.19492 l 2.86095,-2.74166 3.16464,3.16543 c 1.92907,1.92955 3.7636,2.93552 4.69876,2.57659 0.87076,-0.33424 1.27061,-0.16238 0.92471,0.39745 -0.3662,0.59267 0.9969,0.92335 3.41547,0.82855 2.21368,-0.0867 3.79133,-0.53577 3.50585,-0.99779 -0.28548,-0.46202 0.13652,-0.84004 0.93777,-0.84004 1.31474,0 6.78905,-6.69268 15.54137,-19.00024 4.73017,-6.65161 4.13038,-9.63502 -2.85656,-14.20867 -2.34023,-1.53192 -2.39426,-1.77201 -0.98958,-4.39734 1.82352,-3.40814 5.90601,-6.28772 6.85236,-4.83331 0.36649,0.56325 1.69905,1.56821 2.96123,2.23325 1.98607,1.04645 2.70466,0.86425 5.34034,-1.3541 3.24736,-2.73316 3.7022,-2.83604 11.35352,-2.56788 12.93062,0.45318 20.99884,9.50273 19.189,21.52293 -0.45851,3.04528 -0.34108,3.67926 0.47216,2.54916 1.6286,-2.26315 0.13817,2.624 -2.23458,7.32724 -3.04235,6.03051 -70.89576,124.29073 -80.18678,139.75577 -1.4066,2.34131 -1.59649,3.37373 -0.72014,3.91548 0.74907,0.46307 0.92505,0.30666 0.47482,-0.422 -0.39345,-0.63676 -0.47903,-1.15775 -0.19018,-1.15775 0.28885,0 1.03721,0.95698 1.66303,2.12663 0.91749,1.71477 0.87578,1.98924 -0.21536,1.4172 -0.74427,-0.3902 -0.22535,0.27141 1.15316,1.47022 1.37853,1.19881 1.82967,1.86534 1.00257,1.48118 -0.82711,-0.38417 -0.35466,0.36638 1.0499,1.66789 1.40455,1.30151 1.8897,1.91512 1.0781,1.36357 -1.06662,-0.72485 -0.97831,-0.23842 0.31859,1.75492 1.69563,2.60614 3.49344,4.0669 1.96918,1.59998 -0.43317,-0.70107 -0.27605,-0.88619 0.39833,-0.46929 0.61252,0.37865 0.87704,1.30526 0.58783,2.05912 -0.28921,0.75387 0.0258,1.71168 0.69996,2.12846 0.83551,0.51649 0.96756,0.33981 0.41473,-0.55492 -0.52531,-0.85018 -0.4187,-1.07013 0.30259,-0.62423 0.61253,0.37865 0.89189,1.26656 0.62082,1.97313 -0.27107,0.70657 0.33825,2.037 1.35404,2.95651 1.68254,1.52305 7.72956,1.67961 67.95862,1.75941 l 66.11172,0.0876 6.72536,-7.2965 c 3.69895,-4.01306 6.4809,-7.54086 6.18212,-7.83955 -0.29879,-0.29873 -31.22342,-0.54311 -68.72139,-0.54311 h -68.17814 l -1.91701,-2.36741 c -3.60379,-4.45054 -2.60379,-7.28615 10.44617,-29.62159 6.79975,-11.63797 17.69346,-30.41087 24.20826,-41.71756 6.51481,-11.30668 12.31041,-21.15185 12.87913,-21.87815 0.7942,-1.01424 1.2947,-0.54904 2.15777,2.00562 0.61804,1.82939 1.61258,3.23105 2.21007,3.11479 0.5975,-0.11627 1.02665,0.56063 0.95367,1.50422 -0.073,0.94357 0.46478,1.59159 1.19503,1.44003 0.76945,-0.15969 1.03161,0.20369 0.62346,0.86423 -0.38732,0.62688 -0.13381,1.49241 0.56337,1.92339 1.38209,0.8544 1.40808,0.80575 -23.75213,44.44447 -7.89426,13.69209 -14.3532,25.27455 -14.3532,25.7388 0,0.46425 -0.4449,0.99451 -0.98865,1.17836 -0.96862,0.32749 62.42229,0.807 119.54162,0.90425 15.85326,0.027 29.27499,-0.22967 29.82608,-0.57034 5.17688,-3.2003 -11.61887,19.30205 -25.807,34.57529 l -6.96628,7.49907 -72.43535,0.0221 c -39.83944,0.012 -72.76303,-0.20366 -73.16353,-0.47943 z m 61.57365,-159.44685 c 0.85544,-1.65463 1.32976,-3.00843 1.05406,-3.00843 -0.27571,0 -1.20118,1.3538 -2.05661,3.00843 -0.85544,1.65464 -1.32976,3.00844 -1.05405,3.00844 0.2757,0 1.20117,-1.3538 2.0566,-3.00844 z m -13.84231,-27.8089 c -0.25419,-0.9757 -0.47888,-0.42021 -0.49932,1.23443 -0.0205,1.65464 0.18755,2.45293 0.46218,1.774 0.27462,-0.67893 0.29132,-2.03272 0.0372,-3.00843 z m -0.0308,-5.53454 c -0.27812,-0.68943 -0.50568,-0.12535 -0.50568,1.25351 0,1.37887 0.22756,1.94295 0.50568,1.25352 0.27812,-0.68944 0.27812,-1.8176 0,-2.50703 z m -145.961474,32.34063 -0.008,-78.72061 25.282,-12.0077 c 13.90494,-6.60423 38.59079,-18.3819 54.857284,-26.1726 68.27913,-32.7017 90.29464,-42.73792 91.52331,-41.72274 0.66728,0.55133 8.65723,4.38736 17.75544,8.52451 9.0982,4.13713 23.08387,10.53771 31.07927,14.2235 7.99539,3.68579 21.30435,9.7626 29.57544,13.50402 8.2711,3.74143 22.40314,10.2424 31.40454,14.44659 9.00141,4.2042 16.78375,7.644 17.29411,7.644 0.51037,0 0.92793,0.47107 0.92793,1.04681 0,1.51335 -23.34492,28.01387 -24.68801,28.02519 -0.62036,0.005 -5.58302,-2.07638 -11.02813,-4.62578 -5.44512,-2.5494 -14.6373,-6.78643 -20.42707,-9.41562 -5.78977,-2.62917 -24.37474,-11.11973 -41.29996,-18.86789 l -30.7731,-14.08756 -16.84837,7.82137 c -46.43219,21.55482 -115.274304,54.51406 -116.602804,55.8254 -1.29541,1.27871 -1.4561,6.60167 -1.1594,38.407 l 0.34441,36.92255 -3.9729,5.25046 c -3.93132,5.19547 -6.24024,10.75513 -6.24024,15.0259 0,1.21325 -0.5224,3.19158 -1.16089,4.3963 -1.28289,2.42059 -17.97037,24.22692 -22.77999,29.76768 l -3.04668,3.50983 -0.008,-78.72061 z m 19.72539,-52.8369 c -0.1687,-8.16903 -0.30713,-1.76612 -0.3076,14.22871 -4.8e-4,15.99482 0.13756,22.67858 0.30674,14.85279 0.16919,-7.82578 0.16958,-20.91246 8.6e-4,-29.0815 z m 271.865304,-38.66954 4.24395,-5.26475 -4.33765,4.61171 -4.33766,4.61172 -3.50894,-1.83574 c -7.42823,-3.88614 -34.34269,-15.99004 -34.71894,-15.61371 -0.21772,0.21777 8.2945,4.48127 18.91602,9.47444 10.62153,4.99316 19.35403,9.12407 19.40557,9.17978 0.0515,0.0558 2.00347,-2.26783 4.33765,-5.16345 z M 270.10519,66.91764 c -6.61688,-3.23149 -12.48184,-5.8599 -13.03325,-5.84091 -0.5514,0.019 4.41126,2.67232 11.02814,5.89627 6.61687,3.22394 12.48183,5.85235 13.03324,5.84091 0.55141,-0.0114 -4.41125,-2.66476 -11.02813,-5.89627 z M 158.32006,60.43629 c 2.48132,-1.32901 4.06035,-2.4164 3.50894,-2.4164 -0.5514,0 -3.03273,1.08739 -5.51407,2.4164 -2.48132,1.32901 -4.06035,2.4164 -3.50894,2.4164 0.5514,0 3.03274,-1.08739 5.51407,-2.4164 z m 94.24038,-1.50422 c -1.92992,-1.05685 -3.9601,-1.92155 -4.51151,-1.92155 -0.55141,0 0.57647,0.8647 2.5064,1.92155 1.92992,1.05686 3.9601,1.92156 4.5115,1.92156 0.55141,0 -0.57647,-0.8647 -2.50639,-1.92156 z m -14.03581,-6.51826 c -1.37851,-0.78823 -2.95754,-1.43315 -3.50894,-1.43315 -0.55141,0 0.12532,0.64492 1.50383,1.43315 1.37852,0.78823 2.95754,1.43314 3.50895,1.43314 0.5514,0 -0.12532,-0.64491 -1.50384,-1.43314 z M 91.354216,253.58335 c -6.72136,-2.32218 -11.91269,-6.49583 -15.74304,-12.65684 -2.72949,-4.39032 -3.0058,-5.62502 -3.00767,-13.44031 -0.002,-7.54178 0.33196,-9.17423 2.69947,-13.2024 3.10523,-5.28335 9.68285,-11.56295 14.02425,-13.38883 4.2531,-1.78875 14.692114,-1.17605 20.003664,1.1741 2.46248,1.08955 6.22138,3.51275 8.35309,5.38489 2.1317,1.87214 4.06377,3.25346 4.29347,3.06961 0.2297,-0.18385 0.71842,0.001 1.08603,0.41148 0.36761,0.41016 0.0459,0.38495 -0.71489,-0.0561 -0.95173,-0.55165 -1.22539,-0.36717 -0.87724,0.59133 0.27831,0.7662 0.96049,1.29798 1.51595,1.18173 0.55547,-0.11627 0.99194,0.335 0.96994,1.00281 -0.11961,3.63196 0.33458,5.18127 1.14443,3.90377 1.45614,-2.297 3.47041,7.16588 2.66659,12.52744 -1.16844,7.79376 -3.44087,12.07283 -9.21409,17.35056 -8.46617,7.73955 -17.00463,9.66909 -27.199954,6.14668 z m 9.753824,-9.13136 c 5.2134,0 9.93099,-2.51283 13.32452,-7.09728 6.24654,-8.43872 2.78057,-21.88745 -6.92635,-26.87574 -3.53959,-1.81896 -12.426764,-1.3751 -15.990714,0.79865 -3.34447,2.03987 -8.38722,8.02444 -8.38722,9.95368 0,0.63738 -0.37673,1.15886 -0.83717,1.15886 -1.64027,0 -1.00254,10.43231 0.86112,14.0863 2.13152,4.17918 4.48699,6.39851 5.87821,5.53848 0.53745,-0.33226 1.30365,-0.0757 1.70265,0.57001 0.48363,0.78274 0.28801,0.90368 -0.58691,0.36282 -0.88433,-0.54668 -1.07082,-0.42038 -0.57181,0.38726 0.42449,0.68699 1.61393,0.92127 2.78685,0.5489 1.50368,-0.47736 1.83647,-0.31004 1.25499,0.63103 -0.57004,0.9226 -0.30191,1.09283 0.95901,0.60885 0.96267,-0.36951 3.90244,-0.67182 6.532824,-0.67182 z m -5.139514,-9.276 c -0.30679,-4.24123 -0.329,-4.26344 -4.56915,-4.57031 -4.34874,-0.31472 -4.73224,-0.8385 -3.62897,-4.95639 0.49531,-1.84874 1.30781,-2.25632 4.49781,-2.25632 3.8641,0 3.8933,-0.0297 3.8933,-3.95206 0,-4.47364 1.04111,-5.53267 4.568504,-4.64713 2.08436,0.52328 2.44941,1.20987 2.44941,4.60705 0,3.97067 0.021,3.99214 3.90296,3.99214 3.98888,0 5.12005,1.11231 5.12005,5.03462 0,1.43821 -1.02712,2.01623 -4.51151,2.53887 -4.45704,0.66855 -4.5115,0.72377 -4.5115,4.57409 0,3.77322 -0.10996,3.89738 -3.451314,3.89738 -3.34363,0 -3.46093,-0.13296 -3.75959,-4.26194 z M 242.1885,246.64878 c -5.98027,-3.18824 -11.35379,-6.65573 -11.94115,-7.70553 -0.58735,-1.0498 -1.10821,-7.65144 -1.15746,-14.67028 -0.0891,-12.68272 -0.0721,-12.77983 2.73767,-15.72349 1.55496,-1.62907 7.11486,-5.38625 12.35533,-8.34928 7.76778,-4.392 10.57952,-6.67117 15.21883,-12.3363 3.12989,-3.82193 7.04415,-8.4545 8.69838,-10.29461 l 3.00767,-3.34563 4.72718,3.27493 c 2.59996,1.80122 4.63014,3.59284 4.51151,3.9814 -0.11863,0.38855 -3.59733,4.97728 -7.73045,10.19719 -5.72856,7.23483 -7.81946,9.2378 -8.7966,8.42663 -0.70501,-0.58525 -1.52297,-0.8229 -1.81768,-0.52812 -0.29471,0.29479 2.08582,2.12896 5.29007,4.07592 10.20385,6.20009 10.17384,6.13635 10.42049,22.12992 0.21028,13.63466 0.1652,13.95865 -2.19236,15.75807 -4.67087,3.56506 -18.47344,10.93458 -20.45308,10.92037 -1.10282,-0.008 -6.89806,-2.62295 -12.87835,-5.81119 z m 19.70062,-7.34221 c 3.41603,-2.27845 6.77491,-4.84665 7.46417,-5.70713 1.88319,-2.35102 1.6479,-16.21621 -0.32295,-19.03071 -1.55309,-2.2179 -12.2402,-8.22354 -14.63389,-8.22354 -0.67587,0 -4.5557,1.90396 -8.62186,4.23102 l -7.39298,4.23101 0.32216,7.30364 c 0.29786,6.75276 -0.29072,9.09333 -1.52026,6.04546 -0.29133,-0.72218 -0.53922,-0.47847 -0.58482,0.57493 -0.0516,1.19314 0.50568,1.7158 1.60403,1.50421 0.92575,-0.17832 1.5705,-0.71869 1.43277,-1.2008 -0.13773,-0.48212 2.07797,-2.20671 4.92378,-3.83243 4.92985,-2.81627 5.09476,-3.04365 3.49215,-4.81497 -1.93303,-2.13651 -1.57359,-5.6758 0.52751,-5.19419 0.7774,0.1782 3.68309,0.55476 6.45708,0.83681 2.77399,0.28205 5.72035,0.77199 6.54746,1.08874 0.82711,0.31674 1.8422,0.50426 2.25575,0.41669 0.41356,-0.0875 0.75192,1.8939 0.75192,4.40324 0,4.86088 -2.46448,10.93387 -4.04144,9.95901 -0.52161,-0.32245 -0.6797,0.11406 -0.35132,0.97002 0.95181,2.481 -1.23219,1.80024 -3.03017,-0.94453 l -1.63819,-2.50083 -6.3973,4.2483 -6.39729,4.2483 4.66186,2.65751 c 2.56405,1.46163 5.47615,2.70597 6.47137,2.76518 0.99522,0.0593 4.60443,-1.75651 8.02046,-4.03494 z m -24.6515,-20.67695 c -0.2297,-1.51675 -0.41766,-0.27577 -0.41766,2.75773 0,3.0335 0.18796,4.27448 0.41766,2.75773 0.22972,-1.51675 0.22972,-3.99871 0,-5.51546 z m -22.47317,9.93376 c -14.0736,-7.99332 -18.3472,-13.86935 -18.3472,-25.22662 0,-8.51165 2.62995,-13.86214 9.09858,-18.51055 6.06024,-4.35495 14.22381,-15.17231 17.05915,-22.60467 1.72673,-4.52636 2.03492,-7.15228 1.71849,-14.64278 -0.33034,-7.81983 -0.85264,-10.07632 -3.64614,-15.75216 -5.36455,-10.8997 -14.42295,-17.15048 -27.57522,-19.02838 -5.88222,-0.83987 -8.17946,-0.73264 -12.69578,0.59257 -11.03522,3.23806 -16.54952,8.27011 -30.80395,28.11009 l -6.2413,8.68693 h -8.04514 c -4.42483,0 -8.04515,-0.28054 -8.04515,-0.62342 0,-1.87738 24.02393,-33.14703 29.02299,-37.77644 6.68883,-6.19425 13.89155,-10.13191 16.61853,-9.08521 1.17129,0.44958 1.57276,0.31374 1.14048,-0.38588 -0.43174,-0.69874 0.0962,-0.88005 1.49615,-0.51386 1.1898,0.31122 1.9102,0.15632 1.6009,-0.34423 -1.07555,-1.74055 19.45019,-0.53589 26.31531,1.54447 19.84545,6.01383 33.08439,23.99237 33.08439,44.92878 0,4.30957 -0.63974,10.30245 -1.42163,13.31752 -1.74357,6.7233 -1.34509,7.60872 0.80411,1.78678 1.48231,-4.01533 1.55308,-4.0736 0.98976,-0.81478 -1.2382,7.16305 -8.96969,20.52869 -12.77748,22.08878 l -2.13184,0.87345 2.30338,0.68202 c 2.22942,0.66013 13.30357,6.08639 18.09113,8.86453 l 2.34848,1.36279 -4.76532,3.27945 c -5.22657,3.59688 -4.22023,3.67334 -15.24769,-1.15835 -4.96171,-2.17399 -5.55207,-2.22706 -9.49983,-0.85407 -2.36708,0.82325 -4.698,2.44888 -5.32586,3.71435 -0.61408,1.23771 -1.4794,1.91461 -1.92295,1.50422 -1.32704,-1.22784 0.39215,5.98373 2.01825,8.46609 0.82773,1.26358 3.86643,3.64252 6.75268,5.28653 8.98519,5.11796 8.8221,4.90418 8.62989,11.31105 -0.10493,3.49805 -0.6087,5.74146 -1.27647,5.68435 -0.60673,-0.0519 -4.80239,-2.1954 -9.3237,-4.76335 z m 18.74742,-59.68097 c 0,-1.27412 -0.46309,-0.70521 -1.92463,2.36442 -1.12551,2.3639 -1.10464,2.3959 0.36548,0.56044 0.85753,-1.07062 1.55915,-2.38681 1.55915,-2.92486 z m 49.63277,51.3584 c -0.39974,-4.76718 -0.3391,-9.34101 0.13478,-10.16405 1.83573,-3.18838 16.50252,-19.77653 17.48586,-19.77653 0.57135,0 0.81615,0.36036 0.54402,0.80079 -0.27214,0.44044 2.68006,0.32314 6.56044,-0.26067 5.93959,-0.89361 7.44936,-1.5356 9.54769,-4.05993 3.27574,-3.94074 1.28528,-0.0371 -2.36935,4.64676 -6.74991,8.65077 -22.53052,27.86156 -26.67003,32.46719 l -4.50659,5.01406 z M 15.312296,224.40422 C 9.4021859,222.0186 8.1509659,213.99886 12.941286,209.20733 l 2.99968,-3.00044 0.25864,-58.84596 0.25861,-58.84595 5.01279,-2.50837 c 2.75703,-1.37961 20.69027,-10.1692 39.85165,-19.53243 32.28952,-15.77831 34.83886,-17.21206 34.83886,-19.59332 0,-2.3269 -0.86024,-2.88067 -9.11926,-5.87032 -7.86246,-2.84612 -9.50796,-3.14001 -11.93972,-2.13249 -3.34175,1.38455 -6.52369,0.11003 -7.51356,-3.00955 -2.15187,-6.78167 6.69372,-9.80348 9.44581,-3.22685 0.9499,2.26998 2.69117,3.24566 10.43982,5.84972 9.15253,3.07586 9.33638,3.09571 11.61081,1.25351 5.093704,-4.12567 13.450384,-0.94416 14.675354,5.58711 1.43736,7.66374 -5.51893,12.85402 -12.78992,9.54293 -1.995134,-0.90854 -7.495364,1.50737 -41.152034,18.07546 l -38.84909,19.12416 v 57.63674 c 0,39.50706 0.33042,57.63672 1.05043,57.63672 0.57773,0 2.15676,1.19406 3.50895,2.65346 3.49906,3.7765 3.3134,8.67944 -0.47203,12.46583 -2.96805,2.9688 -5.79594,3.53089 -9.74478,1.93693 z m 6.45948,-5.22305 c 3.02142,-3.02218 0.0225,-7.49522 -4.29798,-6.41059 -4.16527,1.04568 -2.87919,7.61396 1.49082,7.61396 0.88224,0 2.14547,-0.54152 2.80716,-1.20337 z M 108.21686,49.37568 c 1.71074,-2.06186 -0.25959,-6.48857 -2.88807,-6.48857 -3.08245,0 -4.6525,2.6217 -3.32082,5.54515 1.2718,2.79199 4.29406,3.25122 6.20889,0.94342 z m 20.71341,167.73631 c -3.25915,-9.40646 -3.2286,-9.58301 3.06798,-17.73323 l 5.7694,-7.46785 6.32552,0.27083 c 3.82207,0.16365 6.89713,-0.20368 7.76982,-0.92813 3.23692,-2.68708 1.11929,1.47853 -6.25709,12.30842 -8.92034,13.09668 -13.24667,18.83363 -14.18848,18.81471 -0.36722,-0.007 -1.48643,-2.37651 -2.48715,-5.26475 z M 99.419836,195.57461 c -3.44629,-0.19582 -6.25842,-0.67295 -6.24917,-1.06029 0.025,-1.04633 21.449114,-30.06178 24.728504,-33.4907 1.55375,-1.6246 4.17846,-3.77328 5.83268,-4.77485 3.18966,-1.93122 9.07958,-3.92001 6.68919,-2.25866 -0.88441,0.61466 0.50854,0.92524 4.14975,0.92524 6.49645,0 13.11993,2.86654 17.19568,7.44204 l 2.77199,3.11187 -3.63035,3.63129 c -3.11696,3.11774 -3.87748,3.45332 -5.37774,2.37292 -7.23499,-5.21024 -10.49648,-6.24491 -14.65447,-4.64894 -0.84792,0.32546 -6.13705,7.09443 -11.75363,15.04215 -6.57084,9.29806 -10.7868,14.38152 -11.8242,14.25719 -0.88674,-0.10627 -4.43194,-0.35344 -7.878234,-0.54926 z m 202.265924,-9.21223 c -3.70135,-1.1485 -12.67152,-5.83197 -19.83129,-10.35424 -8.47346,-5.35202 -9.50946,-7.60296 -10.03768,-21.80908 -0.47781,-12.8505 0.56451,-18.43678 4.2596,-22.82926 2.7427,-3.26035 19.01539,-12.7302 22.07962,-12.84918 1.11425,-0.0432 3.46989,-0.41268 5.23476,-0.82092 2.32674,-0.53821 4.50135,-0.17037 7.91062,1.33809 5.4553,2.41375 5.16765,2.55912 12.56209,-6.34857 l 5.08336,-6.12365 -6.61264,6.97322 c -3.63695,3.83528 -6.61263,6.48034 -6.61263,5.87792 0,-0.60242 9.94776,-12.47264 22.10614,-26.37828 12.15841,-13.90564 21.97093,-25.65733 21.80563,-26.11485 -0.16529,-0.45753 -3.90974,-4.10232 -8.321,-8.09953 -4.41125,-3.9972 -8.13243,-7.52599 -8.26928,-7.84175 -0.13686,-0.31576 5.05137,-2.11693 11.52941,-4.00259 6.47802,-1.88567 13.13168,-4.19683 14.78591,-5.13593 1.65422,-0.93911 4.36111,-2.00946 6.01534,-2.37856 3.99202,-0.89073 23.1434,-6.76853 38.09717,-11.69252 6.61688,-2.1788 13.04578,-3.95641 14.28644,-3.95023 2.41977,0.012 2.92254,1.90531 1.30753,4.92375 -1.22837,2.2958 -5.09333,25.32088 -4.43043,26.39376 0.74382,1.20384 -1.77857,15.85806 -2.63814,15.32667 -0.86406,-0.53415 -3.41514,13.38478 -3.44577,18.80044 -0.0117,2.06829 -0.40669,3.76054 -0.87776,3.76054 -0.47107,0 -0.6437,1.57942 -0.38361,3.50983 0.26007,1.93041 0.12896,3.50984 -0.29136,3.50984 -0.42033,0 -1.06904,1.91787 -1.44159,4.26194 -0.37253,2.34407 -0.91783,5.39011 -1.21178,6.76897 -0.41969,1.96883 -0.30508,2.18411 0.53386,1.00281 1.28987,-1.81618 1.44324,-0.091 0.17069,1.91981 -0.69875,1.10416 -2.85381,-0.39552 -9.72718,-6.76897 -4.85627,-4.50306 -9.08893,-8.18737 -9.40591,-8.18737 -0.51062,0 -16.55243,18.42404 -43.45421,49.9072 -4.88195,5.71333 -8.9932,10.24662 -9.13612,10.07395 -0.14294,-0.17267 -0.51808,-4.48862 -0.83365,-9.591 l -0.57378,-9.27705 25.66596,-29.62341 c 14.11628,-16.29288 25.92972,-29.26006 26.25209,-28.81596 0.85767,1.18153 10.80224,9.30379 11.39119,9.30379 0.58304,0 0.80661,-1.13794 5.31945,-27.07588 1.87124,-10.75514 3.40745,-20.2894 3.41381,-21.18724 0.009,-1.34064 -3.79656,-0.39576 -21.29279,5.28609 -11.71739,3.80519 -21.98107,7.2062 -22.80818,7.55779 -0.8271,0.35161 -1.8845,0.55354 -2.34974,0.44874 -1.5829,-0.35655 -0.16515,1.44509 4.46697,5.67655 2.543,2.32303 5.16986,4.22369 5.83747,4.22369 1.59054,0 0.18396,1.74035 -19.79322,24.49013 -26.77241,30.4881 -36.3361,40.66735 -38.78589,41.28236 -1.477,0.3708 -3.6702,-0.28242 -6.16178,-1.83523 -2.12768,-1.32603 -4.72426,-2.72769 -5.77016,-3.11481 -2.01494,-0.74579 -9.72661,2.83197 -19.4027,9.00169 -5.20111,3.31636 -5.26536,3.41859 -5.42684,8.63331 l -0.16341,5.27721 -0.67573,-5.51546 c -0.52066,-4.2497 -0.71323,-2.62132 -0.83915,7.09558 -0.15441,11.91652 -0.0392,12.72222 2.09234,14.63022 2.63974,2.36291 17.29338,10.78689 20.50232,11.78621 2.42708,0.75584 8.7356,-1.94573 7.85846,-3.36532 -0.69011,-1.11691 2.33467,-2.26869 3.71579,-1.41491 0.60504,0.37404 0.77546,0.18779 0.39364,-0.43018 -0.39983,-0.64709 1.75256,-2.38312 5.2985,-4.27357 6.98091,-3.72172 8.09829,-5.92363 8.09829,-15.95847 0,-6.2807 0.20176,-6.86892 3.42956,-9.99821 l 3.42957,-3.32491 0.68322,4.55719 c 0.37578,2.50647 0.52428,8.61666 0.33003,13.57822 -0.28253,7.21602 -0.75441,9.49807 -2.35832,11.40514 -1.10281,1.31125 -0.76444,1.11427 0.75192,-0.43775 3.11776,-3.19106 3.403,-2.93728 1.29075,1.14838 -1.6616,3.214 -8.77097,8.20145 -19.08614,13.38952 -7.88741,3.96702 -11.8717,4.94242 -15.53964,3.80429 z m 45.13412,-33.69049 c 1.05949,-1.27693 0.99747,-1.42367 -0.37852,-0.89552 -0.9051,0.3474 -1.64563,1.03463 -1.64563,1.52717 0,1.28957 0.58034,1.10846 2.02415,-0.63165 z m 6.56065,-7.74883 2.94461,-3.25913 -3.25832,2.94534 c -1.79207,1.61994 -3.25831,3.08655 -3.25831,3.25913 0,0.77474 0.82724,0.0927 3.57202,-2.94534 z m 6.45355,-7.27037 c 1.29505,-1.37887 2.12906,-2.50703 1.85336,-2.50703 -0.27571,0 -1.56086,1.12816 -2.85592,2.50703 -1.29505,1.37886 -2.12906,2.50702 -1.85335,2.50702 0.2757,0 1.56086,-1.12816 2.85591,-2.50702 z m -8.02046,-5.01406 c 1.29506,-1.37886 2.12907,-2.50702 1.85336,-2.50702 -0.2757,0 -1.56086,1.12816 -2.85591,2.50702 -1.29506,1.37887 -2.12907,2.50703 -1.85336,2.50703 0.27571,0 1.56086,-1.12816 2.85591,-2.50703 z m 14.16369,-2.25632 c 1.24705,-1.59052 1.21159,-1.62599 -0.37853,-0.37862 -0.96495,0.75697 -1.75447,1.54668 -1.75447,1.75492 0,0.82535 0.82329,0.29413 2.133,-1.3763 z m -29.20205,-18.63543 c 0,-0.48915 -2.36854,1.5547 -5.26342,4.54189 -8.56452,8.83758 -9.77125,10.8855 -1.96823,3.34022 3.97741,-3.84602 7.23165,-7.39297 7.23165,-7.88211 z m -39.25974,51.22677 c -3.58243,-3.99871 -7.95662,-8.92323 -9.72041,-10.94338 l -3.20687,-3.67302 3.28533,-2.18013 c 3.09198,-2.05183 3.14604,-2.05697 0.91852,-0.0875 -2.97398,2.62941 -1.50535,2.71632 1.86554,0.1104 l 2.50639,-1.93761 5.26343,5.18478 c 3.69248,3.63731 5.26342,4.66285 5.26342,3.43604 0,-1.97594 27.55133,-29.78122 33.75045,-34.06156 3.89102,-2.68665 8.0353,-2.9118 6.77302,-0.36798 -0.31343,0.63164 0.13566,0.27885 0.99795,-0.78398 0.8623,-1.06282 1.85017,-1.64999 2.19527,-1.30482 0.89055,0.89079 -41.45965,53.87917 -43.06215,53.87917 -0.174,0 -3.24745,-3.27167 -6.82989,-7.27037 z m 25.39751,-17.29848 2.11265,-3.00843 -2.39695,2.50702 c -1.31832,1.37887 -4.35978,4.98898 -6.75881,8.02249 l -4.36187,5.51545 4.64616,-5.01405 c 2.55538,-2.75773 5.59685,-6.36784 6.75882,-8.02248 z m 17.45109,-21.30972 c 2.10673,-2.61984 2.78911,-3.86082 1.51641,-2.75773 -2.39021,2.07168 -6.58941,7.52108 -5.79559,7.52108 0.24683,0 2.17247,-2.14351 4.27918,-4.76335 z m -2.20716,28.8308 c 0,-6.34278 0.16278,-8.93755 0.36174,-5.76616 0.19896,3.17138 0.19896,8.36093 0,11.53231 -0.19896,3.17139 -0.36174,0.57662 -0.36174,-5.76615 z M 310.13812,58.8554 c -1.03619,-1.14527 -2.34677,-3.47981 -2.91242,-5.18787 -0.94963,-2.86761 -3.02575,-4.01921 -27.09492,-15.0294 -51.54532,-23.57884 -72.56426,-32.855 -74.44647,-32.855 -1.44455,0 -27.22125,11.57884 -58.89364,26.45493 -14.0199,6.58495 -16.22588,7.35138 -17.50895,6.08318 -1.28901,-1.27404 -1.28901,-1.62145 0,-2.84874 1.4026,-1.33545 62.75085,-29.98431 72.14832,-33.69235 L 205.94155,0 219.97734,6.50183 c 7.7197,3.57601 16.20978,7.36912 18.86686,8.42912 2.65707,1.06001 8.0256,3.53645 11.93007,5.50321 3.90445,1.96675 14.52845,6.94231 23.60889,11.05681 9.08044,4.1145 20.09952,9.2862 24.48684,11.49266 6.28208,3.15936 8.6535,3.8776 11.16107,3.38037 1.75125,-0.34726 4.34348,-0.85964 5.76049,-1.13863 1.832,-0.36068 3.49758,0.26809 5.7647,2.17623 6.28683,5.29134 2.94089,13.5361 -5.49329,13.5361 -2.81723,0 -4.61137,-0.63056 -5.92485,-2.0823 z m 9.59367,-5.39205 c 0,-2.64288 -1.22506,-4.55938 -2.91442,-4.55938 -3.83206,0 -5.58677,5.0869 -2.37489,6.88482 2.06113,1.15375 5.28931,-0.26551 5.28931,-2.32544 z"
       id="path395"
       sodipodi:nodetypes="ssscsssssssssscssscssssscsssscssssssssssssssssssssssssssssssssssssssssssssscsssssscssssssssssssssssssssssssssscsssssssssssssssssssssssssssssssssssscssscssssssssssssssssccssssssssssssssscccsssssssscssscssscsssscccssssscccssssssssssssssssssssssssssscssssscsssssssssssssssssssssssssssssssssssssssssssscssssssssssssssscssssssssssssssscccsssssssssssssssscssssssssssssscsscsssssssssssssssssssssscssscccsssssssssssscssssssssssssssscssscsssssssscsssssssssssssscssssssssssssssssssssssssssscsssscssssssssssscsssssssssscsssssssssssscssssssssssssssssssssssscssscssssssssscsscsssssssssssssssssscssssssssssssss" />
  </g>
</svg>
